<svg id="Laag_1" data-name="Laag 1" xmlns="http://www.w3.org/2000/svg" viewBox="0 0 100 100"><defs><style>.cls-1{fill:#fff;}.cls-2{fill:#ddd;}</style></defs><title>skills-thumb-icon</title><path class="cls-1" d="M49.74,58.33l0,2.07c0.17,8.29-5.59,14-13.91,14-9.86,0-14.14-7.86-14.14-16.79,1.08,0.73,4.83,3.72,6.05,3.72a1.67,1.67,0,0,0,1.6-1.08c2.47-6.46,6.34-7.62,12.89-7.92A11.89,11.89,0,0,0,49.74,58.33Z"/><path class="cls-2" d="M73.8,27a9.88,9.88,0,0,1-1.31,4.39C70.23,35.69,62.6,49.92,59,53.26a8.93,8.93,0,0,1-15.28-6.43,8.39,8.39,0,0,1,2.68-6.17L64.93,23.82a5.7,5.7,0,0,1,3.78-1.57A4.93,4.93,0,0,1,73.8,27Z"/></svg>