<svg id="Laag_1" data-name="Laag 1" xmlns="http://www.w3.org/2000/svg" viewBox="0 0 100 100"><defs><style>.cls-1{fill:#ddd;}.cls-2{fill:#fff;}</style></defs><title>skills-thumb-icon</title><path class="cls-1" d="M46,69.47a0.93,0.93,0,0,1-1.13.64l-1.8-.5a0.94,0.94,0,0,1-.64-1.16L53.29,30.89a0.93,0.93,0,0,1,1.13-.64l1.8,0.49a0.94,0.94,0,0,1,.64,1.16Z"/><path class="cls-2" d="M38.22,64.41a0.93,0.93,0,0,1-1.34,0L23.32,50.85a0.93,0.93,0,0,1,0-1.34L36.88,35.95a0.93,0.93,0,0,1,1.34,0l1.46,1.45a0.93,0.93,0,0,1,0,1.34L28.24,50.18,39.67,61.61a0.93,0.93,0,0,1,0,1.34Z"/><path class="cls-2" d="M62.43,64.41a0.93,0.93,0,0,1-1.34,0L59.63,63a0.93,0.93,0,0,1,0-1.34L71.07,50.18,59.63,38.74a0.93,0.93,0,0,1,0-1.34l1.46-1.45a0.93,0.93,0,0,1,1.34,0L76,49.51a0.93,0.93,0,0,1,0,1.34Z"/></svg>